<svg width="105" height="30" viewBox="0 0 105 30" fill="none" xmlns="http://www.w3.org/2000/svg">
<path d="M17.0352 0H16.9578C12.895 0 9.60156 3.33156 9.60156 7.44125C9.60156 11.5509 12.895 14.8825 16.9578 14.8825H17.0352C21.0979 14.8825 24.3914 11.5509 24.3914 7.44125C24.3914 3.33156 21.0979 0 17.0352 0Z" fill="white"/>
<path d="M14.7898 22.4412C14.7898 18.3099 11.479 14.9608 7.39491 14.9608C3.31081 14.9608 0 18.3099 0 22.4412V22.5196C0 26.6509 3.31081 30 7.39491 30C11.479 30 14.7898 26.6509 14.7898 22.5196V22.4412Z" fill="white"/>
<path d="M34.0711 22.4412C34.0711 18.3099 30.7603 14.9608 26.6762 14.9608C22.5921 14.9608 19.2812 18.3099 19.2812 22.4412V22.5196C19.2812 26.6509 22.5921 30 26.6762 30C30.7603 30 34.0711 26.6509 34.0711 22.5196V22.4412Z" fill="white"/>
<path d="M53.1793 22.402H51.5231L50.1372 18.1508H44.3233L42.96 22.402H41.3037L46.1936 7.52832H48.2894L53.1793 22.402ZM49.6978 16.7717L47.2303 9.10114L44.7628 16.7717H49.6978ZM64.7845 19.4615C64.7845 20.0845 64.6306 20.6012 64.3226 21.0115C64.0146 21.4218 63.6165 21.7486 63.1283 21.9917C62.6475 22.2349 62.1067 22.4059 61.5058 22.5046C60.9124 22.611 60.3302 22.6642 59.7594 22.6642C58.8054 22.6642 57.8552 22.5236 56.9088 22.2425C55.9624 21.9614 55.1436 21.5928 54.4526 21.1369L55.1399 19.792C55.9135 20.2859 56.6759 20.6658 57.4271 20.9317C58.1782 21.1977 58.9556 21.3306 59.7594 21.3306C62.0804 21.3306 63.241 20.7228 63.241 19.5071C63.241 19.2108 63.1433 18.9714 62.948 18.789C62.7602 18.5991 62.5048 18.4471 62.1818 18.3332C61.8589 18.2116 61.487 18.1166 61.0664 18.0482C60.6532 17.9798 60.2176 17.9152 59.7594 17.8544C59.1735 17.7708 58.5914 17.6721 58.013 17.5581C57.4346 17.4441 56.905 17.2731 56.4243 17.0452C55.9511 16.8173 55.568 16.5133 55.2751 16.1334C54.9896 15.7535 54.8469 15.252 54.8469 14.629C54.8469 14.097 54.9783 13.6373 55.2412 13.2498C55.5116 12.8623 55.8684 12.5394 56.3116 12.2811C56.7623 12.0227 57.2881 11.8328 57.8891 11.7112C58.49 11.5897 59.1134 11.5289 59.7594 11.5289C60.6833 11.5289 61.5096 11.639 62.2382 11.8593C62.9668 12.0721 63.624 12.3798 64.2099 12.7825L63.5902 14.0021C62.9893 13.5765 62.3809 13.2802 61.7649 13.1131C61.149 12.9383 60.4805 12.8509 59.7594 12.8509C59.4364 12.8509 59.0758 12.8813 58.6777 12.9422C58.2872 12.9953 57.9228 13.0941 57.5848 13.2385C57.2468 13.3752 56.9613 13.5576 56.7285 13.7855C56.5032 14.0059 56.3905 14.287 56.3905 14.629C56.3905 14.9253 56.4844 15.1647 56.6722 15.347C56.8675 15.5218 57.1267 15.6699 57.4496 15.7915C57.7726 15.9055 58.1406 15.9967 58.5538 16.0651C58.9745 16.1334 59.4139 16.198 59.8721 16.2588C60.4429 16.3423 61.0175 16.4411 61.596 16.5551C62.1818 16.6691 62.7114 16.8363 63.1846 17.0566C63.6654 17.277 64.0522 17.5771 64.3452 17.957C64.6381 18.3369 64.7845 18.8385 64.7845 19.4615ZM77.6631 17.1022C77.6631 17.9304 77.5353 18.6827 77.2798 19.3589C77.0245 20.0352 76.6639 20.6202 76.1983 21.1141C75.74 21.6004 75.1842 21.9803 74.5307 22.2538C73.8772 22.5274 73.1448 22.6642 72.3336 22.6642C71.7777 22.6642 71.2369 22.5616 70.7111 22.3564C70.1928 22.1513 69.7083 21.8474 69.2576 21.4446V26.6533H67.714V11.7796H69.2576V12.7597C70.2116 11.9392 71.2369 11.5289 72.3336 11.5289C73.1448 11.5289 73.8772 11.6656 74.5307 11.9392C75.1842 12.2051 75.74 12.5888 76.1983 13.0903C76.6639 13.5841 77.0245 14.1769 77.2798 14.8683C77.5353 15.5522 77.6631 16.2968 77.6631 17.1022ZM76.1193 17.1022C76.1193 16.5095 76.0367 15.9549 75.8715 15.4382C75.7138 14.9139 75.4734 14.4618 75.1504 14.0818C74.8274 13.702 74.4293 13.4018 73.9561 13.1815C73.4903 12.9611 72.9495 12.8509 72.3336 12.8509C71.7477 12.8509 71.1994 12.9611 70.6885 13.1815C70.1853 13.4018 69.7083 13.759 69.2576 14.2528V19.9516C69.7083 20.4455 70.1853 20.7988 70.6885 21.0115C71.1994 21.2243 71.7477 21.3306 72.3336 21.3306C72.9495 21.3306 73.4903 21.2205 73.9561 21.0002C74.4293 20.7798 74.8274 20.4797 75.1504 20.0997C75.4734 19.7198 75.7138 19.2753 75.8715 18.7662C76.0367 18.2496 76.1193 17.6949 76.1193 17.1022ZM81.3024 17.6379C81.4147 18.7625 81.8205 19.659 82.5189 20.3277C83.2174 20.9963 84.1265 21.3306 85.2461 21.3306C86.0344 21.3306 86.7367 21.1673 87.3531 20.8405C87.9687 20.5138 88.431 20.1073 88.7384 19.621L89.8201 20.3733C89.2944 21.1179 88.6672 21.6878 87.9385 22.0829C87.2099 22.4704 86.3124 22.6642 85.2461 22.6642C84.4346 22.6642 83.6913 22.5274 83.0145 22.2538C82.3385 21.9803 81.7531 21.6004 81.2575 21.1141C80.7689 20.6202 80.3895 20.0352 80.1193 19.3589C79.849 18.6827 79.7135 17.9304 79.7135 17.1022C79.7135 16.2968 79.8335 15.5559 80.0743 14.8797C80.3221 14.1958 80.6752 13.6069 81.1336 13.1131C81.599 12.6116 82.162 12.2241 82.8232 11.9505C83.4845 11.6694 84.224 11.5289 85.0433 11.5289C85.9369 11.5289 86.7182 11.6808 87.3864 11.9847C88.0554 12.2887 88.6106 12.7104 89.0543 13.2498C89.505 13.7818 89.8356 14.42 90.0455 15.1647C90.2631 15.9093 90.3722 16.7337 90.3722 17.6379H81.3024ZM88.7384 16.3044C88.5657 15.1419 88.1491 14.2756 87.4878 13.7058C86.8273 13.1359 86.012 12.8509 85.0433 12.8509C84.5469 12.8509 84.0893 12.9346 83.668 13.1017C83.2476 13.2613 82.8759 13.493 82.553 13.797C82.2301 14.1009 81.9599 14.4694 81.7415 14.9025C81.5239 15.328 81.3845 15.7953 81.3249 16.3044H88.7384ZM102.304 22.402H100.749V15.8485C100.749 14.8987 100.547 14.1617 100.141 13.6373C99.7355 13.1131 99.0781 12.8509 98.169 12.8509C97.5984 12.8509 97.0803 12.9839 96.6142 13.2498C96.1565 13.5158 95.7655 13.8729 95.4426 14.3212C95.1197 14.7619 94.8719 15.271 94.6992 15.8485C94.5335 16.4183 94.4515 17.0148 94.4515 17.6379V22.402H92.9074V11.7796H94.4515V14.4466C95.1948 12.5014 96.5205 11.5289 98.4284 11.5289C101.012 11.5289 102.304 12.9687 102.304 15.8485V22.402Z" fill="white"/>
</svg>
