<svg width="393" height="429" viewBox="0 0 393 429" fill="none" xmlns="http://www.w3.org/2000/svg">
<g clip-path="url(#clip0)">
<rect width="393" height="429" fill="#1A1A20"/>
<g opacity="0.05">
<path d="M159.902 142.987L159.175 143.568C121.041 174.042 115.117 230.017 145.943 268.592C176.769 307.168 232.673 313.735 270.807 283.261L271.534 282.681C309.669 252.207 315.593 196.231 284.767 157.656C253.94 119.08 198.037 112.513 159.902 142.987Z" fill="url(#paint0_linear)"/>
<path d="M307.152 370.474C276.164 331.695 219.966 325.093 181.631 355.728C143.296 386.362 137.34 442.632 168.328 481.411L168.916 482.146C199.905 520.924 256.103 527.526 294.438 496.892C332.773 466.258 338.728 409.987 307.74 371.209L307.152 370.474Z" fill="url(#paint1_linear)"/>
<path d="M488.133 225.849C457.144 187.071 400.946 180.469 362.611 211.103C324.276 241.738 318.32 298.008 349.309 336.786L349.896 337.521C380.885 376.3 437.083 382.902 475.418 352.267C513.753 321.633 519.709 265.363 488.72 226.585L488.133 225.849Z" fill="url(#paint2_linear)"/>
</g>
</g>
<defs>
<linearGradient id="paint0_linear" x1="159.539" y1="143.277" x2="271.171" y2="282.971" gradientUnits="userSpaceOnUse">
<stop stop-color="white"/>
<stop offset="1" stop-color="white" stop-opacity="0"/>
</linearGradient>
<linearGradient id="paint1_linear" x1="181.631" y1="355.728" x2="294.438" y2="496.892" gradientUnits="userSpaceOnUse">
<stop stop-color="white"/>
<stop offset="1" stop-color="white" stop-opacity="0"/>
</linearGradient>
<linearGradient id="paint2_linear" x1="362.611" y1="211.103" x2="475.418" y2="352.267" gradientUnits="userSpaceOnUse">
<stop stop-color="white"/>
<stop offset="1" stop-color="white" stop-opacity="0"/>
</linearGradient>
<clipPath id="clip0">
<rect width="393" height="429" fill="white"/>
</clipPath>
</defs>
</svg>
