<svg width="38" height="213" viewBox="0 0 38 213" fill="none" xmlns="http://www.w3.org/2000/svg">
<path opacity="0.3" d="M8.736 201.056L8.736 200.056L7.736 200.056L7.736 201.056L8.736 201.056ZM8.736 211.808L8.736 212.808L9.736 212.808L9.736 211.808L8.736 211.808ZM2.4 211.808L1.4 211.808L1.4 212.808L2.4 212.808L2.4 211.808ZM2.4 182.528L2.4 181.528L1.4 181.528L1.4 182.528L2.4 182.528ZM8.736 182.528L9.736 182.528L9.736 181.528L8.736 181.528L8.736 182.528ZM8.736 193.28L7.736 193.28L7.736 194.28L8.736 194.28L8.736 193.28ZM36 193.28L37 193.28L37 192.28L36 192.28L36 193.28ZM36 201.056L36 202.056L37 202.056L37 201.056L36 201.056ZM7.736 201.056L7.736 211.808L9.736 211.808L9.736 201.056L7.736 201.056ZM8.736 210.808L2.4 210.808L2.4 212.808L8.736 212.808L8.736 210.808ZM3.4 211.808L3.4 182.528L1.4 182.528L1.4 211.808L3.4 211.808ZM2.4 183.528L8.736 183.528L8.736 181.528L2.4 181.528L2.4 183.528ZM7.736 182.528L7.736 193.28L9.736 193.28L9.736 182.528L7.736 182.528ZM8.736 194.28L36 194.28L36 192.28L8.736 192.28L8.736 194.28ZM35 193.28L35 201.056L37 201.056L37 193.28L35 193.28ZM36 200.056L8.736 200.056L8.736 202.056L36 202.056L36 200.056ZM28.8 156.944L28.418 156.019L27.8 156.275L27.8 156.944L28.8 156.944ZM28.8 172.544L27.8 172.544L27.8 173.212L28.418 173.468L28.8 172.544ZM36 175.52L37 175.52L37 174.851L36.382 174.595L36 175.52ZM36 183.488L35.5929 184.401L37 185.028L37 183.488L36 183.488ZM2.4 168.512L1.4 168.512L1.4 169.161L1.99289 169.425L2.4 168.512ZM2.4 160.832L1.9918 159.919L1.4 160.183L1.4 160.832L2.4 160.832ZM36 145.808L37 145.808L37 144.265L35.5918 144.895L36 145.808ZM36 153.968L36.382 154.892L37 154.636L37 153.968L36 153.968ZM22.896 159.392L23.896 159.392L23.896 157.895L22.5133 158.468L22.896 159.392ZM10.032 164.72L9.64934 163.796L7.41869 164.72L9.64934 165.644L10.032 164.72ZM22.896 170.048L22.5133 170.972L23.896 171.544L23.896 170.048L22.896 170.048ZM27.8 156.944L27.8 172.544L29.8 172.544L29.8 156.944L27.8 156.944ZM28.418 173.468L35.618 176.444L36.382 174.595L29.182 171.619L28.418 173.468ZM35 175.52L35 183.488L37 183.488L37 175.52L35 175.52ZM36.4071 182.574L2.8071 167.598L1.99289 169.425L35.5929 184.401L36.4071 182.574ZM3.4 168.512L3.4 160.832L1.4 160.832L1.4 168.512L3.4 168.512ZM2.80819 161.745L36.4082 146.721L35.5918 144.895L1.9918 159.919L2.80819 161.745ZM35 145.808L35 153.968L37 153.968L37 145.808L35 145.808ZM35.618 153.043L28.418 156.019L29.182 157.868L36.382 154.892L35.618 153.043ZM22.5133 158.468L9.64934 163.796L10.4147 165.644L23.2787 160.316L22.5133 158.468ZM9.64934 165.644L22.5133 170.972L23.2787 169.124L10.4147 163.796L9.64934 165.644ZM23.896 170.048L23.896 159.392L21.896 159.392L21.896 170.048L23.896 170.048ZM2.39999 141.362L1.39999 141.362L1.39999 142.362L2.39999 142.362L2.39999 141.362ZM2.39999 133.586L2.39999 132.586L1.39999 132.586L1.39999 133.586L2.39999 133.586ZM36 133.586L37 133.586L37 132.586L36 132.586L36 133.586ZM36 141.362L36 142.362L37 142.362L37 141.362L36 141.362ZM3.39999 141.362L3.39999 133.586L1.39999 133.586L1.39999 141.362L3.39999 141.362ZM2.39999 134.586L36 134.586L36 132.586L2.39999 132.586L2.39999 134.586ZM35 133.586L35 141.362L37 141.362L37 133.586L35 133.586ZM36 140.362L2.39999 140.362L2.39999 142.362L36 142.362L36 140.362ZM3.88799 102.38L4.79792 102.794L4.80016 102.789L3.88799 102.38ZM21.072 97.2916L21.6165 96.4528L21.6098 96.4486L21.072 97.2916ZM25.296 102.38L26.2109 101.976L26.2082 101.97L25.296 102.38ZM26.736 116.876L25.736 116.876L25.736 117.876L26.736 117.876L26.736 116.876ZM36 116.876L37 116.876L37 115.876L36 115.876L36 116.876ZM36 124.652L36 125.652L37 125.652L37 124.652L36 124.652ZM2.39999 124.652L1.39999 124.652L1.39999 125.652L2.39999 125.652L2.39999 124.652ZM18.912 105.212L19.6869 104.579L19.6819 104.573L19.6769 104.567L18.912 105.212ZM10.272 105.212L11.0369 105.856L11.0419 105.85L11.0469 105.844L10.272 105.212ZM8.736 116.876L7.736 116.876L7.736 117.876L8.736 117.876L8.736 116.876ZM20.4 116.876L20.4 117.876L21.4 117.876L21.4 116.876L20.4 116.876ZM3.39999 110.108C3.39999 107.241 3.87793 104.812 4.7979 102.794L2.97809 101.965C1.91406 104.299 1.39999 107.023 1.39999 110.108L3.39999 110.108ZM4.80016 102.789C5.7226 100.736 7.0116 99.1981 8.65646 98.1304L7.56752 96.4528C5.56439 97.7531 4.03739 99.607 2.97583 101.97L4.80016 102.789ZM8.65646 98.1304C10.2954 97.0665 12.2599 96.5156 14.592 96.5156L14.592 94.5156C11.932 94.5156 9.57657 95.1487 7.56752 96.4528L8.65646 98.1304ZM14.592 96.5156C16.8889 96.5156 18.8575 97.0651 20.5342 98.1347L21.6098 96.4486C19.5745 95.1502 17.2231 94.5156 14.592 94.5156L14.592 96.5156ZM20.5275 98.1304C22.1724 99.1981 23.4614 100.736 24.3838 102.789L26.2082 101.97C25.1466 99.607 23.6196 97.7531 21.6165 96.4528L20.5275 98.1304ZM24.3811 102.783C25.2728 104.804 25.736 107.237 25.736 110.108L27.736 110.108C27.736 107.026 27.2392 104.307 26.2109 101.976L24.3811 102.783ZM25.736 110.108L25.736 116.876L27.736 116.876L27.736 110.108L25.736 110.108ZM26.736 117.876L36 117.876L36 115.876L26.736 115.876L26.736 117.876ZM35 116.876L35 124.652L37 124.652L37 116.876L35 116.876ZM36 123.652L2.39999 123.652L2.39999 125.652L36 125.652L36 123.652ZM3.39999 124.652L3.39999 110.108L1.39999 110.108L1.39999 124.652L3.39999 124.652ZM21.4 110.54C21.4 108.082 20.8808 106.043 19.6869 104.579L18.1371 105.844C18.9272 106.812 19.4 108.326 19.4 110.54L21.4 110.54ZM19.6769 104.567C18.4302 103.087 16.6881 102.388 14.592 102.388L14.592 104.388C16.2079 104.388 17.3458 104.904 18.1471 105.856L19.6769 104.567ZM14.592 102.388C12.4711 102.388 10.718 103.083 9.49713 104.579L11.0469 105.844C11.81 104.908 12.9369 104.388 14.592 104.388L14.592 102.388ZM9.50708 104.567C8.27398 106.032 7.736 108.075 7.736 110.54L9.736 110.54C9.736 108.332 10.222 106.823 11.0369 105.856L9.50708 104.567ZM7.736 110.54L7.736 116.876L9.736 116.876L9.736 110.54L7.736 110.54ZM8.736 117.876L20.4 117.876L20.4 115.876L8.736 115.876L8.736 117.876ZM21.4 116.876L21.4 110.54L19.4 110.54L19.4 116.876L21.4 116.876ZM2.39999 89.0041L1.39999 89.0041L1.39999 90.0041L2.39999 90.0041L2.39999 89.0041ZM2.39999 81.2281L2.39999 80.2281L1.39999 80.2281L1.39999 81.2281L2.39999 81.2281ZM36 81.2281L37 81.2281L37 80.2281L36 80.2281L36 81.2281ZM36 89.0041L36 90.0041L37 90.0041L37 89.0041L36 89.0041ZM3.39999 89.0041L3.39999 81.2281L1.39999 81.2281L1.39999 89.0041L3.39999 89.0041ZM2.39999 82.2281L36 82.2281L36 80.2281L2.39999 80.2281L2.39999 82.2281ZM35 81.2281L35 89.0041L37 89.0041L37 81.2281L35 81.2281ZM36 88.0041L2.39999 88.0041L2.39999 90.0041L36 90.0041L36 88.0041ZM2.39999 41.4781L2.39999 40.4781L1.39999 40.4781L1.39999 41.4781L2.39999 41.4781ZM36 41.4781L37 41.4781L37 40.4781L36 40.4781L36 41.4781ZM36 47.8621L36.6346 48.6349L37 48.3349L37 47.8621L36 47.8621ZM15.6 64.6141L14.9654 63.8413L12.8065 65.6141L15.6 65.6141L15.6 64.6141ZM36 64.6141L37 64.6141L37 63.6141L36 63.6141L36 64.6141ZM36 72.2941L36 73.2941L37 73.2941L37 72.2941L36 72.2941ZM2.39999 72.2941L1.39999 72.2941L1.39999 73.2941L2.39999 73.2941L2.39999 72.2941ZM2.39999 65.8621L1.76646 65.0884L1.39999 65.3885L1.39999 65.8621L2.39999 65.8621ZM22.8 49.1581L23.4335 49.9318L25.5997 48.1581L22.8 48.1581L22.8 49.1581ZM2.39999 49.1581L1.39999 49.1581L1.39999 50.1581L2.39999 50.1581L2.39999 49.1581ZM2.39999 42.4781L36 42.4781L36 40.4781L2.39999 40.4781L2.39999 42.4781ZM35 41.4781L35 47.8621L37 47.8621L37 41.4781L35 41.4781ZM35.3654 47.0893L14.9654 63.8413L16.2346 65.3869L36.6346 48.6349L35.3654 47.0893ZM15.6 65.6141L36 65.6141L36 63.6141L15.6 63.6141L15.6 65.6141ZM35 64.6141L35 72.2941L37 72.2941L37 64.6141L35 64.6141ZM36 71.2941L2.39999 71.2941L2.39999 73.2941L36 73.2941L36 71.2941ZM3.39999 72.2941L3.39999 65.8621L1.39999 65.8621L1.39999 72.2941L3.39999 72.2941ZM3.03353 66.6358L23.4335 49.9318L22.1665 48.3844L1.76646 65.0884L3.03353 66.6358ZM22.8 48.1581L2.39999 48.1581L2.39999 50.1581L22.8 50.1581L22.8 48.1581ZM3.39999 49.1581L3.39999 41.4781L1.39999 41.4781L1.39999 49.1581L3.39999 49.1581ZM18.672 9.8645L17.672 9.8645L17.672 10.8645L18.672 10.8645L18.672 9.8645ZM18.672 2.7605L18.672 1.7605L17.672 1.7605L17.672 2.7605L18.672 2.7605ZM32.304 2.7605L33.1023 2.15826L32.8022 1.7605L32.304 1.7605L32.304 2.7605ZM35.472 9.09649L36.428 8.80331L35.472 9.09649ZM34.368 25.7525L35.2478 26.2278L35.252 26.2199L34.368 25.7525ZM28.176 32.3285L28.6844 33.1896L28.6905 33.186L28.6966 33.1823L28.176 32.3285ZM10.272 32.3285L9.75598 33.1851L9.75904 33.1869L10.272 32.3285ZM4.07999 25.7045L4.96625 25.2412L4.96207 25.2334L4.07999 25.7045ZM3.31199 8.18451L2.38782 7.80252L3.31199 8.18451ZM7.63199 2.1365L8.36679 1.45822L7.71029 0.747008L6.97804 1.37997L7.63199 2.1365ZM12.24 7.12851L12.9285 7.85373L13.6436 7.1748L12.9748 6.45022L12.24 7.12851ZM9.79199 21.5285L10.6725 21.0544L9.79199 21.5285ZM24.768 25.4165L25.2623 26.2858L24.768 25.4165ZM28.608 21.5765L29.4773 22.0708L29.483 22.0608L29.4885 22.0506L28.608 21.5765ZM28.512 9.8645L29.3935 9.39229L29.1107 8.8645L28.512 8.8645L28.512 9.8645ZM19.672 9.8645L19.672 2.7605L17.672 2.7605L17.672 9.8645L19.672 9.8645ZM18.672 3.7605L32.304 3.7605L32.304 1.7605L18.672 1.7605L18.672 3.7605ZM31.5057 3.36275C32.8049 5.08496 33.8107 7.09013 34.5159 9.38969L36.428 8.80331C35.6612 6.30287 34.5551 4.08404 33.1023 2.15826L31.5057 3.36275ZM34.5159 9.38969C35.2237 11.6978 35.576 14.015 35.576 16.3445L37.576 16.3445C37.576 13.8099 37.1922 11.2952 36.428 8.80331L34.5159 9.38969ZM35.576 16.3445C35.576 19.6874 34.8719 22.6601 33.484 25.2851L35.252 26.2199C36.8081 23.2769 37.576 19.9776 37.576 16.3445L35.576 16.3445ZM33.4882 25.2772C32.0657 27.9103 30.1236 29.9697 27.6554 31.4747L28.6966 33.1823C31.4763 31.4873 33.6623 29.1627 35.2478 26.2278L33.4882 25.2772ZM27.6676 31.4674C25.1777 32.9373 22.3638 33.6805 19.2 33.6805L19.2 35.6805C22.6922 35.6805 25.8623 34.8557 28.6844 33.1896L27.6676 31.4674ZM19.2 33.6805C16.0361 33.6805 13.2403 32.9373 10.7849 31.4701L9.75904 33.1869C12.5517 34.8557 15.7079 35.6805 19.2 35.6805L19.2 33.6805ZM10.788 31.4719C8.2932 29.969 6.35544 27.8989 4.96622 25.2413L3.19377 26.1678C4.74854 29.1421 6.93879 31.488 9.75598 33.1851L10.788 31.4719ZM4.96207 25.2334C3.5432 22.5768 2.82399 19.5734 2.82399 16.2005L0.823991 16.2005C0.823991 19.8676 1.60878 23.2002 3.19792 26.1756L4.96207 25.2334ZM2.82399 16.2005C2.82399 13.3701 3.30048 10.8302 4.23616 8.5665L2.38782 7.80252C1.3395 10.3388 0.823991 13.1429 0.823991 16.2005L2.82399 16.2005ZM4.23616 8.5665C5.17104 6.30467 6.52085 4.41879 8.28594 2.89304L6.97804 1.37997C4.96713 3.11821 3.43694 5.26433 2.38782 7.80252L4.23616 8.5665ZM6.89719 2.81479L11.5052 7.80678L12.9748 6.45022L8.36679 1.45822L6.89719 2.81479ZM11.5515 6.40327C8.83081 8.98619 7.44799 12.1418 7.44799 15.8165L9.44799 15.8165C9.44799 12.7072 10.5932 10.0708 12.9285 7.85373L11.5515 6.40327ZM7.44799 15.8165C7.44799 18.1035 7.92704 20.1743 8.91152 22.0026L10.6725 21.0544C9.86495 19.5547 9.44799 17.8175 9.44799 15.8165L7.44799 15.8165ZM8.91152 22.0026C9.89594 23.8308 11.2933 25.2643 13.0897 26.2858L14.0783 24.5472C12.6107 23.7127 11.48 22.5542 10.6725 21.0544L8.91152 22.0026ZM13.0897 26.2858C14.8904 27.3098 16.9368 27.8085 19.2 27.8085L19.2 25.8085C17.2392 25.8085 15.5415 25.3793 14.0783 24.5472L13.0897 26.2858ZM19.2 27.8085C21.4342 27.8085 23.4638 27.3085 25.2623 26.2858L24.2737 24.5472C22.8082 25.3806 21.1258 25.8085 19.2 25.8085L19.2 27.8085ZM25.2623 26.2858C27.0508 25.2688 28.4603 23.8593 29.4773 22.0708L27.7387 21.0822C26.8997 22.5577 25.7492 23.7082 24.2737 24.5472L25.2623 26.2858ZM29.4885 22.0506C30.4718 20.2244 30.952 18.1702 30.952 15.9125L28.952 15.9125C28.952 17.8788 28.5362 19.6006 27.7275 21.1024L29.4885 22.0506ZM30.952 15.9125C30.952 13.5249 30.439 11.3439 29.3935 9.39229L27.6305 10.3367C28.505 11.9691 28.952 13.8201 28.952 15.9125L30.952 15.9125ZM28.512 8.8645L18.672 8.8645L18.672 10.8645L28.512 10.8645L28.512 8.8645Z" fill="white"/>
</svg>
