<svg width="19" height="146" viewBox="0 0 19 146" fill="none" xmlns="http://www.w3.org/2000/svg">
<path opacity="0.8" d="M18 134.304L13.32 137.544L13.32 137.736L13.32 141.12L18 141.12L18 145.008L1.2 145.008L1.2 137.736C1.2 136.248 1.448 134.96 1.944 133.872C2.44 132.768 3.144 131.92 4.056 131.328C4.968 130.736 6.048 130.44 7.296 130.44C8.544 130.44 9.624 130.744 10.536 131.352C11.432 131.944 12.12 132.792 12.6 133.896L18 130.128L18 134.304ZM7.296 134.376C6.352 134.376 5.632 134.68 5.136 135.288C4.624 135.896 4.368 136.784 4.368 137.952L4.368 141.12L10.224 141.12L10.224 137.952C10.224 136.784 9.968 135.896 9.456 135.288C8.944 134.68 8.224 134.376 7.296 134.376ZM14.88 113.872L18 113.872L18 126.88L1.2 126.88L1.2 114.184L4.32 114.184L4.32 123.016L7.968 123.016L7.968 115.216L10.992 115.216L10.992 123.016L14.88 123.016L14.88 113.872ZM9.264 97.962C9.568 97.002 10.08 96.25 10.8 95.706C11.504 95.162 12.376 94.89 13.416 94.89C14.888 94.89 16.024 95.466 16.824 96.618C17.608 97.754 18 99.418 18 101.61L18 110.298L1.2 110.298L1.2 102.09C1.2 100.042 1.592 98.474 2.376 97.386C3.16 96.282 4.224 95.73 5.568 95.73C6.384 95.73 7.112 95.93 7.752 96.33C8.392 96.714 8.896 97.258 9.264 97.962ZM4.128 106.434L8.088 106.434L8.088 102.57C8.088 101.61 7.92 100.882 7.584 100.386C7.248 99.89 6.752 99.642 6.096 99.642C5.44 99.642 4.952 99.89 4.632 100.386C4.296 100.882 4.128 101.61 4.128 102.57L4.128 106.434ZM15.072 101.898C15.072 100.874 14.904 100.106 14.568 99.594C14.232 99.066 13.712 98.802 13.008 98.802C11.616 98.802 10.92 99.834 10.92 101.898L10.92 106.434L15.072 106.434L15.072 101.898ZM14.88 78.4584L18 78.4584L18 91.4664L1.2 91.4664L1.2 78.7704L4.32 78.7704L4.32 87.6024L7.968 87.6024L7.968 79.8024L10.992 79.8024L10.992 87.6024L14.88 87.6024L14.88 78.4584ZM1.2 74.8849L1.2 70.9969L14.832 70.9969L14.832 62.5729L18 62.5729L18 74.8849L1.2 74.8849ZM1.2 59.9205L1.19999 56.0325L14.832 56.0325L14.832 47.6085L18 47.6085L18 59.9205L1.2 59.9205ZM1.19999 44.9561L1.19999 41.0681L18 41.0681L18 44.9561L1.19999 44.9561ZM18.288 28.4651C18.288 30.2091 17.912 31.7851 17.16 33.1931C16.408 34.5851 15.376 35.6811 14.064 36.4811C12.736 37.2651 11.248 37.6571 9.59999 37.6571C7.95199 37.6571 6.47199 37.2651 5.15999 36.4811C3.83199 35.6811 2.79199 34.5851 2.03999 33.1931C1.28799 31.7851 0.911995 30.2091 0.911995 28.4651C0.911994 26.7211 1.28799 25.1531 2.03999 23.7611C2.79199 22.3691 3.83199 21.2731 5.15999 20.4731C6.47199 19.6731 7.95199 19.2731 9.59999 19.2731C11.248 19.2731 12.736 19.6731 14.064 20.4731C15.376 21.2731 16.408 22.3691 17.16 23.7611C17.912 25.1531 18.288 26.7211 18.288 28.4651ZM14.976 28.4651C14.976 27.4731 14.752 26.5771 14.304 25.7771C13.84 24.9771 13.2 24.3531 12.384 23.9051C11.568 23.4411 10.64 23.2091 9.59999 23.2091C8.55999 23.2091 7.63199 23.4411 6.81599 23.9051C5.99999 24.3531 5.36799 24.9771 4.91999 25.7771C4.45599 26.5771 4.22399 27.4731 4.22399 28.4651C4.22399 29.4571 4.45599 30.3531 4.91999 31.1531C5.36799 31.9531 5.99999 32.5851 6.81599 33.0491C7.63199 33.4971 8.55999 33.7211 9.59999 33.7211C10.64 33.7211 11.568 33.4971 12.384 33.0491C13.2 32.5851 13.84 31.9531 14.304 31.1531C14.752 30.3531 14.976 29.4571 14.976 28.4651ZM1.19999 0.463128L18 0.463127L18 3.65513L7.79999 12.0311L18 12.0311L18 15.8711L1.19999 15.8711L1.19999 12.6551L11.4 4.30313L1.19999 4.30313L1.19999 0.463128Z" fill="white"/>
</svg>
